<?xml version="1.0" encoding="utf-8"?>
<svg version="1.1" xmlns="http://www.w3.org/2000/svg" width="576" height="768">
  <path d="M0 0 C23.76 0 47.52 0 72 0 C72 7.92 72 15.84 72 24 C79.92 24 87.84 24 96 24 C96 16.08 96 8.16 96 0 C127.68 0 159.36 0 192 0 C192 7.92 192 15.84 192 24 C207.84 24 223.68 24 240 24 C240 31.92 240 39.84 240 48 C247.92 48 255.84 48 264 48 C264 55.92 264 63.84 264 72 C271.92 72 279.84 72 288 72 C288 79.92 288 87.84 288 96 C295.92 96 303.84 96 312 96 C312 111.84 312 127.68 312 144 C319.92 144 327.84 144 336 144 C336 175.68 336 207.36 336 240 C343.92 240 351.84 240 360 240 C360 247.92 360 255.84 360 264 C367.92 264 375.84 264 384 264 C384 271.92 384 279.84 384 288 C360.24 288 336.48 288 312 288 C312 295.92 312 303.84 312 312 C327.84 312 343.68 312 360 312 C360 327.84 360 343.68 360 360 C367.92 360 375.84 360 384 360 C384 367.92 384 375.84 384 384 C360.24 384 336.48 384 312 384 C312 399.84 312 415.68 312 432 C319.92 432 327.84 432 336 432 C336 439.92 336 447.84 336 456 C304.32 456 272.64 456 240 456 C240 463.92 240 471.84 240 480 C247.92 480 255.84 480 264 480 C264 487.92 264 495.84 264 504 C271.92 504 279.84 504 288 504 C288 551.52 288 599.04 288 648 C280.08 648 272.16 648 264 648 C264 663.84 264 679.68 264 696 C248.16 696 232.32 696 216 696 C216 703.92 216 711.84 216 720 C231.84 720 247.68 720 264 720 C264 735.84 264 751.68 264 768 C224.4 768 184.8 768 144 768 C144 744.24 144 720.48 144 696 C120.24 696 96.48 696 72 696 C72 719.76 72 743.52 72 768 C32.4 768 -7.2 768 -48 768 C-48 752.16 -48 736.32 -48 720 C-32.16 720 -16.32 720 0 720 C0 712.08 0 704.16 0 696 C-15.84 696 -31.68 696 -48 696 C-48 680.16 -48 664.32 -48 648 C-55.92 648 -63.84 648 -72 648 C-72 600.48 -72 552.96 -72 504 C-64.08 504 -56.16 504 -48 504 C-48 496.08 -48 488.16 -48 480 C-40.08 480 -32.16 480 -24 480 C-24 472.08 -24 464.16 -24 456 C-55.68 456 -87.36 456 -120 456 C-120 448.08 -120 440.16 -120 432 C-112.08 432 -104.16 432 -96 432 C-96 424.08 -96 416.16 -96 408 C-111.84 408 -127.68 408 -144 408 C-144 400.08 -144 392.16 -144 384 C-151.92 384 -159.84 384 -168 384 C-168 376.08 -168 368.16 -168 360 C-160.08 360 -152.16 360 -144 360 C-144 352.08 -144 344.16 -144 336 C-159.84 336 -175.68 336 -192 336 C-192 328.08 -192 320.16 -192 312 C-184.08 312 -176.16 312 -168 312 C-168 304.08 -168 296.16 -168 288 C-160.08 288 -152.16 288 -144 288 C-144 272.16 -144 256.32 -144 240 C-151.92 240 -159.84 240 -168 240 C-168 232.08 -168 224.16 -168 216 C-175.92 216 -183.84 216 -192 216 C-192 208.08 -192 200.16 -192 192 C-168.24 192 -144.48 192 -120 192 C-120 184.08 -120 176.16 -120 168 C-112.08 168 -104.16 168 -96 168 C-96 152.16 -96 136.32 -96 120 C-88.08 120 -80.16 120 -72 120 C-72 104.16 -72 88.32 -72 72 C-64.08 72 -56.16 72 -48 72 C-48 64.08 -48 56.16 -48 48 C-40.08 48 -32.16 48 -24 48 C-24 40.08 -24 32.16 -24 24 C-16.08 24 -8.16 24 0 24 C0 16.08 0 8.16 0 0 Z " fill="#000000" transform="translate(192,0)"/>
  <path d="M0 0 C23.76 0 47.52 0 72 0 C72 7.92 72 15.84 72 24 C79.92 24 87.84 24 96 24 C96 16.08 96 8.16 96 0 C127.68 0 159.36 0 192 0 C192 7.92 192 15.84 192 24 C207.84 24 223.68 24 240 24 C240 31.92 240 39.84 240 48 C247.92 48 255.84 48 264 48 C264 55.92 264 63.84 264 72 C271.92 72 279.84 72 288 72 C288 79.92 288 87.84 288 96 C295.92 96 303.84 96 312 96 C312 127.68 312 159.36 312 192 C304.08 192 296.16 192 288 192 C288 199.92 288 207.84 288 216 C272.16 216 256.32 216 240 216 C240 223.92 240 231.84 240 240 C216.24 240 192.48 240 168 240 C168 247.92 168 255.84 168 264 C160.08 264 152.16 264 144 264 C144 287.76 144 311.52 144 336 C159.84 336 175.68 336 192 336 C192 320.16 192 304.32 192 288 C199.92 288 207.84 288 216 288 C216 303.84 216 319.68 216 336 C223.92 336 231.84 336 240 336 C240 351.84 240 367.68 240 384 C247.92 384 255.84 384 264 384 C264 391.92 264 399.84 264 408 C271.92 408 279.84 408 288 408 C288 415.92 288 423.84 288 432 C264.24 432 240.48 432 216 432 C216 424.08 216 416.16 216 408 C200.16 408 184.32 408 168 408 C168 415.92 168 423.84 168 432 C128.4 432 88.8 432 48 432 C48 424.08 48 416.16 48 408 C32.16 408 16.32 408 0 408 C0 400.08 0 392.16 0 384 C-15.84 384 -31.68 384 -48 384 C-48 368.16 -48 352.32 -48 336 C-55.92 336 -63.84 336 -72 336 C-72 304.32 -72 272.64 -72 240 C-79.92 240 -87.84 240 -96 240 C-96 247.92 -96 255.84 -96 264 C-103.92 264 -111.84 264 -120 264 C-120 256.08 -120 248.16 -120 240 C-135.84 240 -151.68 240 -168 240 C-168 232.08 -168 224.16 -168 216 C-175.92 216 -183.84 216 -192 216 C-192 208.08 -192 200.16 -192 192 C-168.24 192 -144.48 192 -120 192 C-120 184.08 -120 176.16 -120 168 C-112.08 168 -104.16 168 -96 168 C-96 152.16 -96 136.32 -96 120 C-88.08 120 -80.16 120 -72 120 C-72 104.16 -72 88.32 -72 72 C-64.08 72 -56.16 72 -48 72 C-48 64.08 -48 56.16 -48 48 C-40.08 48 -32.16 48 -24 48 C-24 40.08 -24 32.16 -24 24 C-16.08 24 -8.16 24 0 24 C0 16.08 0 8.16 0 0 Z " style="" transform="translate(192,0)"/>
  <path d="M0 0 C7.92 0 15.84 0 24 0 C24 7.92 24 15.84 24 24 C31.92 24 39.84 24 48 24 C48 31.92 48 39.84 48 48 C55.92 48 63.84 48 72 48 C72 55.92 72 63.84 72 72 C64.08 72 56.16 72 48 72 C48 95.76 48 119.52 48 144 C63.84 144 79.68 144 96 144 C96 128.16 96 112.32 96 96 C103.92 96 111.84 96 120 96 C120 111.84 120 127.68 120 144 C127.92 144 135.84 144 144 144 C144 159.84 144 175.68 144 192 C151.92 192 159.84 192 168 192 C168 199.92 168 207.84 168 216 C175.92 216 183.84 216 192 216 C192 223.92 192 231.84 192 240 C168.24 240 144.48 240 120 240 C120 232.08 120 224.16 120 216 C104.16 216 88.32 216 72 216 C72 223.92 72 231.84 72 240 C32.4 240 -7.2 240 -48 240 C-48 232.08 -48 224.16 -48 216 C-63.84 216 -79.68 216 -96 216 C-96 208.08 -96 200.16 -96 192 C-88.08 192 -80.16 192 -72 192 C-72 184.08 -72 176.16 -72 168 C-79.92 168 -87.84 168 -96 168 C-96 160.08 -96 152.16 -96 144 C-88.08 144 -80.16 144 -72 144 C-72 128.16 -72 112.32 -72 96 C-64.08 96 -56.16 96 -48 96 C-48 111.84 -48 127.68 -48 144 C-40.08 144 -32.16 144 -24 144 C-24 128.16 -24 112.32 -24 96 C-8.16 96 7.68 96 24 96 C24 88.08 24 80.16 24 72 C16.08 72 8.16 72 0 72 C0 48.24 0 24.48 0 0 Z " fill="#FFFFFF" transform="translate(288,192)"/>
  <path d="M0 0 C7.92 0 15.84 0 24 0 C24 31.68 24 63.36 24 96 C31.92 96 39.84 96 48 96 C48 103.92 48 111.84 48 120 C55.92 120 63.84 120 72 120 C72 127.92 72 135.84 72 144 C48.24 144 24.48 144 0 144 C0 151.92 0 159.84 0 168 C15.84 168 31.68 168 48 168 C48 183.84 48 199.68 48 216 C55.92 216 63.84 216 72 216 C72 223.92 72 231.84 72 240 C24.48 240 -23.04 240 -72 240 C-72 224.16 -72 208.32 -72 192 C-79.92 192 -87.84 192 -96 192 C-96 176.16 -96 160.32 -96 144 C-103.92 144 -111.84 144 -120 144 C-120 159.84 -120 175.68 -120 192 C-135.84 192 -151.68 192 -168 192 C-168 168.24 -168 144.48 -168 120 C-160.08 120 -152.16 120 -144 120 C-144 112.08 -144 104.16 -144 96 C-120.24 96 -96.48 96 -72 96 C-72 88.08 -72 80.16 -72 72 C-56.16 72 -40.32 72 -24 72 C-24 64.08 -24 56.16 -24 48 C-16.08 48 -8.16 48 0 48 C0 32.16 0 16.32 0 0 Z " transform="translate(504,144)" style=""/>
  <path d="M0 0 C7.92 0 15.84 0 24 0 C24 23.76 24 47.52 24 72 C39.84 72 55.68 72 72 72 C72 64.08 72 56.16 72 48 C64.08 48 56.16 48 48 48 C48 32.16 48 16.32 48 0 C55.92 0 63.84 0 72 0 C72 7.92 72 15.84 72 24 C79.92 24 87.84 24 96 24 C96 31.92 96 39.84 96 48 C103.92 48 111.84 48 120 48 C120 32.16 120 16.32 120 0 C127.92 0 135.84 0 144 0 C144 23.76 144 47.52 144 72 C151.92 72 159.84 72 168 72 C168 79.92 168 87.84 168 96 C152.16 96 136.32 96 120 96 C120 111.84 120 127.68 120 144 C112.08 144 104.16 144 96 144 C96 128.16 96 112.32 96 96 C88.08 96 80.16 96 72 96 C72 111.84 72 127.68 72 144 C64.08 144 56.16 144 48 144 C48 151.92 48 159.84 48 168 C40.08 168 32.16 168 24 168 C24 152.16 24 136.32 24 120 C16.08 120 8.16 120 0 120 C0 80.4 0 40.8 0 0 Z " fill="#000000" transform="translate(144,192)"/>
  <path d="M0 0 C7.92 0 15.84 0 24 0 C24 7.92 24 15.84 24 24 C31.92 24 39.84 24 48 24 C48 16.08 48 8.16 48 0 C55.92 0 63.84 0 72 0 C72 47.52 72 95.04 72 144 C40.32 144 8.64 144 -24 144 C-24 136.08 -24 128.16 -24 120 C-16.08 120 -8.16 120 0 120 C0 112.08 0 104.16 0 96 C-15.84 96 -31.68 96 -48 96 C-48 88.08 -48 80.16 -48 72 C-40.08 72 -32.16 72 -24 72 C-24 64.08 -24 56.16 -24 48 C-16.08 48 -8.16 48 0 48 C0 32.16 0 16.32 0 0 Z " transform="translate(48,240)" style=""/>
  <path d="M0 0 C15.84 0 31.68 0 48 0 C48 7.92 48 15.84 48 24 C40.08 24 32.16 24 24 24 C24 71.52 24 119.04 24 168 C16.08 168 8.16 168 0 168 C0 152.16 0 136.32 0 120 C-7.92 120 -15.84 120 -24 120 C-24 104.16 -24 88.32 -24 72 C-31.92 72 -39.84 72 -48 72 C-48 87.84 -48 103.68 -48 120 C-63.84 120 -79.68 120 -96 120 C-96 96.24 -96 72.48 -96 48 C-88.08 48 -80.16 48 -72 48 C-72 40.08 -72 32.16 -72 24 C-48.24 24 -24.48 24 0 24 C0 16.08 0 8.16 0 0 Z " fill="#000000" transform="translate(432,216)"/>
  <path d="M0 0 C7.92 0 15.84 0 24 0 C24 7.92 24 15.84 24 24 C31.92 24 39.84 24 48 24 C48 31.92 48 39.84 48 48 C40.08 48 32.16 48 24 48 C24 55.92 24 63.84 24 72 C8.16 72 -7.68 72 -24 72 C-24 64.08 -24 56.16 -24 48 C-31.92 48 -39.84 48 -48 48 C-48 40.08 -48 32.16 -48 24 C-32.16 24 -16.32 24 0 24 C0 16.08 0 8.16 0 0 Z " transform="translate(360,432)" style=""/>
  <path d="M0 0 C7.92 0 15.84 0 24 0 C24 7.92 24 15.84 24 24 C39.84 24 55.68 24 72 24 C72 31.92 72 39.84 72 48 C64.08 48 56.16 48 48 48 C48 55.92 48 63.84 48 72 C32.16 72 16.32 72 0 72 C0 64.08 0 56.16 0 48 C-7.92 48 -15.84 48 -24 48 C-24 40.08 -24 32.16 -24 24 C-16.08 24 -8.16 24 0 24 C0 16.08 0 8.16 0 0 Z " transform="translate(216,432)" style=""/>
  <path d="M0 0 C15.84 0 31.68 0 48 0 C48 15.84 48 31.68 48 48 C16.32 48 -15.36 48 -48 48 C-48 40.08 -48 32.16 -48 24 C-32.16 24 -16.32 24 0 24 C0 16.08 0 8.16 0 0 Z " transform="translate(72,336)" style=""/>
  <path d="M0 0 C15.84 0 31.68 0 48 0 C48 15.84 48 31.68 48 48 C55.92 48 63.84 48 72 48 C72 55.92 72 63.84 72 72 C48.24 72 24.48 72 0 72 C0 64.08 0 56.16 0 48 C7.92 48 15.84 48 24 48 C24 40.08 24 32.16 24 24 C16.08 24 8.16 24 0 24 C0 16.08 0 8.16 0 0 Z " fill="#000000" transform="translate(504,312)"/>
  <path d="M0 0 C7.92 0 15.84 0 24 0 C24 31.68 24 63.36 24 96 C16.08 96 8.16 96 0 96 C0 88.08 0 80.16 0 72 C-7.92 72 -15.84 72 -24 72 C-24 64.08 -24 56.16 -24 48 C-16.08 48 -8.16 48 0 48 C0 32.16 0 16.32 0 0 Z " fill="#000000" transform="translate(504,144)"/>
  <path d="M0 0 C7.92 0 15.84 0 24 0 C24 7.92 24 15.84 24 24 C31.92 24 39.84 24 48 24 C48 31.92 48 39.84 48 48 C24.24 48 0.48 48 -24 48 C-24 40.08 -24 32.16 -24 24 C-16.08 24 -8.16 24 0 24 C0 16.08 0 8.16 0 0 Z " style="" transform="translate(432,384)"/>
  <path d="M0 0 C7.92 0 15.84 0 24 0 C24 7.92 24 15.84 24 24 C31.92 24 39.84 24 48 24 C48 31.92 48 39.84 48 48 C24.24 48 0.48 48 -24 48 C-24 40.08 -24 32.16 -24 24 C-16.08 24 -8.16 24 0 24 C0 16.08 0 8.16 0 0 Z " fill="#000000" transform="translate(528,240)"/>
  <path d="M0 0 C7.92 0 15.84 0 24 0 C24 15.84 24 31.68 24 48 C31.92 48 39.84 48 48 48 C48 55.92 48 63.84 48 72 C32.16 72 16.32 72 0 72 C0 48.24 0 24.48 0 0 Z " fill="#FFFFFF" transform="translate(168,192)"/>
  <path d="M0 0 C23.76 0 47.52 0 72 0 C72 7.92 72 15.84 72 24 C64.08 24 56.16 24 48 24 C48 31.92 48 39.84 48 48 C40.08 48 32.16 48 24 48 C24 40.08 24 32.16 24 24 C16.08 24 8.16 24 0 24 C0 16.08 0 8.16 0 0 Z " fill="#000000" transform="translate(0,192)"/>
  <path d="M0 0 C31.68 0 63.36 0 96 0 C96 7.92 96 15.84 96 24 C64.32 24 32.64 24 0 24 C0 16.08 0 8.16 0 0 Z " fill="#000000" transform="translate(288,0)"/>
  <path d="M0 0 C23.76 0 47.52 0 72 0 C72 7.92 72 15.84 72 24 C48.24 24 24.48 24 0 24 C0 16.08 0 8.16 0 0 Z " transform="translate(120,408)" style=""/>
  <path d="M0 0 C23.76 0 47.52 0 72 0 C72 7.92 72 15.84 72 24 C48.24 24 24.48 24 0 24 C0 16.08 0 8.16 0 0 Z " fill="#000000" transform="translate(264,384)"/>
  <path d="M0 0 C23.76 0 47.52 0 72 0 C72 7.92 72 15.84 72 24 C48.24 24 24.48 24 0 24 C0 16.08 0 8.16 0 0 Z " fill="#000000" transform="translate(192,0)"/>
  <path d="M0 0 C7.92 0 15.84 0 24 0 C24 15.84 24 31.68 24 48 C16.08 48 8.16 48 0 48 C0 32.16 0 16.32 0 0 Z " transform="translate(360,624)" style=""/>
  <path d="M0 0 C7.92 0 15.84 0 24 0 C24 15.84 24 31.68 24 48 C16.08 48 8.16 48 0 48 C0 32.16 0 16.32 0 0 Z " transform="translate(312,624)" style=""/>
  <path d="M0 0 C7.92 0 15.84 0 24 0 C24 15.84 24 31.68 24 48 C16.08 48 8.16 48 0 48 C0 32.16 0 16.32 0 0 Z " transform="translate(264,624)" style=""/>
  <path d="M0 0 C7.92 0 15.84 0 24 0 C24 15.84 24 31.68 24 48 C16.08 48 8.16 48 0 48 C0 32.16 0 16.32 0 0 Z " transform="translate(216,624)" style=""/>
  <path d="M0 0 C7.92 0 15.84 0 24 0 C24 15.84 24 31.68 24 48 C16.08 48 8.16 48 0 48 C0 32.16 0 16.32 0 0 Z " transform="translate(288,552)" style=""/>
  <path d="M0 0 C7.92 0 15.84 0 24 0 C24 15.84 24 31.68 24 48 C16.08 48 8.16 48 0 48 C0 32.16 0 16.32 0 0 Z " fill="#000000" transform="translate(240,288)"/>
  <path d="M0 0 C15.84 0 31.68 0 48 0 C48 7.92 48 15.84 48 24 C32.16 24 16.32 24 0 24 C0 16.08 0 8.16 0 0 Z " transform="translate(48,288)" style=""/>
  <path d="M0 0 C7.92 0 15.84 0 24 0 C24 15.84 24 31.68 24 48 C16.08 48 8.16 48 0 48 C0 32.16 0 16.32 0 0 Z " fill="#000000" transform="translate(384,144)"/>
  <path d="M0 0 C7.92 0 15.84 0 24 0 C24 15.84 24 31.68 24 48 C16.08 48 8.16 48 0 48 C0 32.16 0 16.32 0 0 Z " fill="#000000" transform="translate(168,144)"/>
  <path d="M0 0 C7.92 0 15.84 0 24 0 C24 15.84 24 31.68 24 48 C16.08 48 8.16 48 0 48 C0 32.16 0 16.32 0 0 Z " fill="#000000" transform="translate(264,120)"/>
  <path d="M0 0 C7.92 0 15.84 0 24 0 C24 15.84 24 31.68 24 48 C16.08 48 8.16 48 0 48 C0 32.16 0 16.32 0 0 Z " fill="#000000" transform="translate(96,120)"/>
  <path d="M0 0 C7.92 0 15.84 0 24 0 C24 15.84 24 31.68 24 48 C16.08 48 8.16 48 0 48 C0 32.16 0 16.32 0 0 Z " fill="#000000" transform="translate(480,96)"/>
  <path d="M0 0 C7.92 0 15.84 0 24 0 C24 15.84 24 31.68 24 48 C16.08 48 8.16 48 0 48 C0 32.16 0 16.32 0 0 Z " fill="#000000" transform="translate(120,72)"/>
  <path d="M0 0 C15.84 0 31.68 0 48 0 C48 7.92 48 15.84 48 24 C32.16 24 16.32 24 0 24 C0 16.08 0 8.16 0 0 Z " fill="#000000" transform="translate(384,24)"/>
  <path d="M0 0 C7.92 0 15.84 0 24 0 C24 7.92 24 15.84 24 24 C16.08 24 8.16 24 0 24 C0 16.08 0 8.16 0 0 Z " fill="#FFFFFF" transform="translate(360,696)"/>
  <path d="M0 0 C7.92 0 15.84 0 24 0 C24 7.92 24 15.84 24 24 C16.08 24 8.16 24 0 24 C0 16.08 0 8.16 0 0 Z " fill="#FFFFFF" transform="translate(216,696)"/>
  <path d="M0 0 C7.92 0 15.84 0 24 0 C24 7.92 24 15.84 24 24 C16.08 24 8.16 24 0 24 C0 16.08 0 8.16 0 0 Z " fill="#FFFFFF" transform="translate(408,648)"/>
  <path d="M0 0 C7.92 0 15.84 0 24 0 C24 7.92 24 15.84 24 24 C16.08 24 8.16 24 0 24 C0 16.08 0 8.16 0 0 Z " fill="#FFFFFF" transform="translate(168,648)"/>
  <path d="M0 0 C7.92 0 15.84 0 24 0 C24 7.92 24 15.84 24 24 C16.08 24 8.16 24 0 24 C0 16.08 0 8.16 0 0 Z " fill="#FFFFFF" transform="translate(432,624)"/>
  <path d="M0 0 C7.92 0 15.84 0 24 0 C24 7.92 24 15.84 24 24 C16.08 24 8.16 24 0 24 C0 16.08 0 8.16 0 0 Z " fill="#FEFFFF" transform="translate(144,624)"/>
  <path d="M0 0 C7.92 0 15.84 0 24 0 C24 7.92 24 15.84 24 24 C16.08 24 8.16 24 0 24 C0 16.08 0 8.16 0 0 Z " fill="#000000" transform="translate(408,384)"/>
  <path d="M0 0 C7.92 0 15.84 0 24 0 C24 7.92 24 15.84 24 24 C16.08 24 8.16 24 0 24 C0 16.08 0 8.16 0 0 Z " fill="#000000" transform="translate(24,360)"/>
  <path d="M0 0 C7.92 0 15.84 0 24 0 C24 7.92 24 15.84 24 24 C16.08 24 8.16 24 0 24 C0 16.08 0 8.16 0 0 Z " fill="#000000" transform="translate(480,288)"/>
  <path d="M0 0 C7.92 0 15.84 0 24 0 C24 7.92 24 15.84 24 24 C16.08 24 8.16 24 0 24 C0 16.08 0 8.16 0 0 Z " fill="#FFFFFF" transform="translate(408,264)"/>
  <path d="M0 0 C7.92 0 15.84 0 24 0 C24 7.92 24 15.84 24 24 C16.08 24 8.16 24 0 24 C0 16.08 0 8.16 0 0 Z " fill="#FFFFFF" transform="translate(240,264)"/>
  <path d="M0 0 C7.92 0 15.84 0 24 0 C24 7.92 24 15.84 24 24 C16.08 24 8.16 24 0 24 C0 16.08 0 8.16 0 0 Z " fill="#000000" transform="translate(336,216)"/>
  <path d="M0 0 C7.92 0 15.84 0 24 0 C24 7.92 24 15.84 24 24 C16.08 24 8.16 24 0 24 C0 16.08 0 8.16 0 0 Z " fill="#000000" transform="translate(408,192)"/>
  <path d="M0 0 C7.92 0 15.84 0 24 0 C24 7.92 24 15.84 24 24 C16.08 24 8.16 24 0 24 C0 16.08 0 8.16 0 0 Z " fill="#000000" transform="translate(312,192)"/>
  <path d="M0 0 C7.92 0 15.84 0 24 0 C24 7.92 24 15.84 24 24 C16.08 24 8.16 24 0 24 C0 16.08 0 8.16 0 0 Z " fill="#000000" transform="translate(456,168)"/>
  <path d="M0 0 C7.92 0 15.84 0 24 0 C24 7.92 24 15.84 24 24 C16.08 24 8.16 24 0 24 C0 16.08 0 8.16 0 0 Z " fill="#000000" transform="translate(288,168)"/>
  <path d="M0 0 C7.92 0 15.84 0 24 0 C24 7.92 24 15.84 24 24 C16.08 24 8.16 24 0 24 C0 16.08 0 8.16 0 0 Z " fill="#000000" transform="translate(72,168)"/>
  <path d="M0 0 C7.92 0 15.84 0 24 0 C24 7.92 24 15.84 24 24 C16.08 24 8.16 24 0 24 C0 16.08 0 8.16 0 0 Z " fill="#000000" transform="translate(432,144)"/>
  <path d="M0 0 C7.92 0 15.84 0 24 0 C24 7.92 24 15.84 24 24 C16.08 24 8.16 24 0 24 C0 16.08 0 8.16 0 0 Z " fill="#000000" transform="translate(288,96)"/>
  <path d="M0 0 C7.92 0 15.84 0 24 0 C24 7.92 24 15.84 24 24 C16.08 24 8.16 24 0 24 C0 16.08 0 8.16 0 0 Z " fill="#000000" transform="translate(456,72)"/>
  <path d="M0 0 C7.92 0 15.84 0 24 0 C24 7.92 24 15.84 24 24 C16.08 24 8.16 24 0 24 C0 16.08 0 8.16 0 0 Z " fill="#000000" transform="translate(432,48)"/>
  <path d="M0 0 C7.92 0 15.84 0 24 0 C24 7.92 24 15.84 24 24 C16.08 24 8.16 24 0 24 C0 16.08 0 8.16 0 0 Z " fill="#000000" transform="translate(144,48)"/>
  <path d="M0 0 C7.92 0 15.84 0 24 0 C24 7.92 24 15.84 24 24 C16.08 24 8.16 24 0 24 C0 16.08 0 8.16 0 0 Z " fill="#000000" transform="translate(264,24)"/>
  <path d="M0 0 C7.92 0 15.84 0 24 0 C24 7.92 24 15.84 24 24 C16.08 24 8.16 24 0 24 C0 16.08 0 8.16 0 0 Z " fill="#000000" transform="translate(168,24)"/>
  <rect x="156.795" y="216.44" width="58.55" height="23.023" style="stroke: rgb(0, 0, 0); paint-order: stroke;"/>
  <rect x="418.325" y="385.267" width="68.108" height="57.271" style="stroke: rgb(0, 0, 0); paint-order: stroke; stroke-width: 1;"/>
  <rect x="432.627" y="358.302" width="55.597" height="57.271" style="stroke: rgb(0, 0, 0); paint-order: stroke; stroke-width: 1;"/>
  <rect x="397.981" y="408.73" width="42.859" height="25.653" style="stroke: rgb(0, 0, 0); paint-order: stroke; stroke-width: 1;"/>
  <rect x="408.777" y="405.911" width="42.859" height="25.653" style="stroke: rgb(0, 0, 0); paint-order: stroke; stroke-width: 1;"/>
</svg>